<mxfile host="drawio-plugin" modified="2023-10-04T07:53:12.841Z" agent="5.0 (X11; Linux x86_64) AppleWebKit/537.36 (KHTML, like Gecko) Chrome/111.0.0.0 Safari/537.36" etag="XvnIYccyWW55i8ZuBSue" version="20.5.3" type="embed"><diagram id="IJEdTG_1g50z3ue5o5ka" name="Page-1"><mxGraphModel dx="295" dy="1380" grid="1" gridSize="10" guides="1" tooltips="1" connect="1" arrows="1" fold="1" page="1" pageScale="1" pageWidth="827" pageHeight="1169" math="0" shadow="1"><root><mxCell id="0"/><mxCell id="1" parent="0"/><mxCell id="11" value="" style="shape=card;whiteSpace=wrap;html=1;sketch=1;hachureGap=4;jiggle=2;fontFamily=Architects Daughter;fontSource=https%3A%2F%2Ffonts.googleapis.com%2Fcss%3Ffamily%3DArchitects%2BDaughter;fontSize=20;fillColor=default;fontColor=#ffffff;strokeColor=#3700CC;gradientColor=none;gradientDirection=radial;" parent="1" vertex="1"><mxGeometry x="190" y="-160" width="180" height="540" as="geometry"/></mxCell><mxCell id="2" value="Utilisateur&lt;br&gt;" style="shape=umlActor;verticalLabelPosition=bottom;verticalAlign=top;html=1;sketch=1;rounded=1;" parent="1" vertex="1"><mxGeometry x="30" y="90" width="30" height="70" as="geometry"/></mxCell><mxCell id="12" value="&lt;font style=&quot;font-size: 11px;&quot;&gt;1Sélectionner des produits&lt;/font&gt;" style="ellipse;whiteSpace=wrap;html=1;sketch=1;hachureGap=4;jiggle=2;fontFamily=Architects Daughter;fontSource=https%3A%2F%2Ffonts.googleapis.com%2Fcss%3Ffamily%3DArchitects%2BDaughter;fontSize=20;" parent="1" vertex="1"><mxGeometry x="220" y="-100" width="110" height="70" as="geometry"/></mxCell><mxCell id="13" value="&lt;font style=&quot;font-size: 11px;&quot;&gt;Valider le panier&lt;/font&gt;" style="ellipse;whiteSpace=wrap;html=1;sketch=1;hachureGap=4;jiggle=2;fontFamily=Architects Daughter;fontSource=https%3A%2F%2Ffonts.googleapis.com%2Fcss%3Ffamily%3DArchitects%2BDaughter;fontSize=20;" parent="1" vertex="1"><mxGeometry x="220" y="-30" width="110" height="70" as="geometry"/></mxCell><mxCell id="15" value="&lt;font style=&quot;font-size: 11px;&quot;&gt;Choisir l'adresse de facturation&lt;/font&gt;" style="ellipse;whiteSpace=wrap;html=1;sketch=1;hachureGap=4;jiggle=2;fontFamily=Architects Daughter;fontSource=https%3A%2F%2Ffonts.googleapis.com%2Fcss%3Ffamily%3DArchitects%2BDaughter;fontSize=20;" parent="1" vertex="1"><mxGeometry x="225" y="130" width="110" height="70" as="geometry"/></mxCell><mxCell id="16" value="&lt;font style=&quot;font-size: 11px;&quot;&gt;Choisir l'adresse de livrason&lt;/font&gt;" style="ellipse;whiteSpace=wrap;html=1;sketch=1;hachureGap=4;jiggle=2;fontFamily=Architects Daughter;fontSource=https%3A%2F%2Ffonts.googleapis.com%2Fcss%3Ffamily%3DArchitects%2BDaughter;fontSize=20;" parent="1" vertex="1"><mxGeometry x="220" y="50" width="110" height="70" as="geometry"/></mxCell><mxCell id="19" value="" style="endArrow=classic;html=1;rounded=0;sketch=1;hachureGap=4;jiggle=2;fontFamily=Architects Daughter;fontSource=https%3A%2F%2Ffonts.googleapis.com%2Fcss%3Ffamily%3DArchitects%2BDaughter;fontSize=11;entryX=0.076;entryY=0.743;entryDx=0;entryDy=0;entryPerimeter=0;" parent="1" target="12" edge="1"><mxGeometry width="50" height="50" relative="1" as="geometry"><mxPoint x="60" y="100" as="sourcePoint"/><mxPoint x="110" y="50" as="targetPoint"/></mxGeometry></mxCell><mxCell id="21" value="" style="endArrow=classic;html=1;rounded=0;sketch=1;hachureGap=4;jiggle=2;fontFamily=Architects Daughter;fontSource=https%3A%2F%2Ffonts.googleapis.com%2Fcss%3Ffamily%3DArchitects%2BDaughter;fontSize=11;entryX=0.076;entryY=0.743;entryDx=0;entryDy=0;entryPerimeter=0;" parent="1" edge="1"><mxGeometry width="50" height="50" relative="1" as="geometry"><mxPoint x="70" y="120" as="sourcePoint"/><mxPoint x="225" y="11.009999999999991" as="targetPoint"/></mxGeometry></mxCell><mxCell id="22" value="" style="endArrow=classic;html=1;rounded=0;sketch=1;hachureGap=4;jiggle=2;fontFamily=Architects Daughter;fontSource=https%3A%2F%2Ffonts.googleapis.com%2Fcss%3Ffamily%3DArchitects%2BDaughter;fontSize=11;entryX=0.076;entryY=0.743;entryDx=0;entryDy=0;entryPerimeter=0;" parent="1" edge="1"><mxGeometry width="50" height="50" relative="1" as="geometry"><mxPoint x="70" y="140" as="sourcePoint"/><mxPoint x="225" y="91.00999999999999" as="targetPoint"/></mxGeometry></mxCell><mxCell id="23" value="" style="endArrow=classic;html=1;rounded=0;sketch=1;hachureGap=4;jiggle=2;fontFamily=Architects Daughter;fontSource=https%3A%2F%2Ffonts.googleapis.com%2Fcss%3Ffamily%3DArchitects%2BDaughter;fontSize=11;entryX=0.076;entryY=0.743;entryDx=0;entryDy=0;entryPerimeter=0;" parent="1" edge="1"><mxGeometry width="50" height="50" relative="1" as="geometry"><mxPoint x="70" y="150" as="sourcePoint"/><mxPoint x="228.36" y="172.01" as="targetPoint"/></mxGeometry></mxCell><mxCell id="24" value="Enregistrer une commande" style="text;html=1;strokeColor=none;fillColor=none;align=center;verticalAlign=middle;whiteSpace=wrap;rounded=0;sketch=1;hachureGap=4;jiggle=2;fontFamily=Architects Daughter;fontSource=https%3A%2F%2Ffonts.googleapis.com%2Fcss%3Ffamily%3DArchitects%2BDaughter;fontSize=11;" parent="1" vertex="1"><mxGeometry x="220" y="-150" width="130" height="30" as="geometry"/></mxCell><mxCell id="28" value="Système" style="shape=umlActor;verticalLabelPosition=bottom;verticalAlign=top;html=1;sketch=1;rounded=1;" parent="1" vertex="1"><mxGeometry x="610" y="90" width="30" height="70" as="geometry"/></mxCell><mxCell id="31" value="&lt;font style=&quot;font-size: 11px;&quot;&gt;Payer&lt;br&gt;&lt;/font&gt;" style="ellipse;whiteSpace=wrap;html=1;sketch=1;hachureGap=4;jiggle=2;fontFamily=Architects Daughter;fontSource=https%3A%2F%2Ffonts.googleapis.com%2Fcss%3Ffamily%3DArchitects%2BDaughter;fontSize=20;" vertex="1" parent="1"><mxGeometry x="225" y="210" width="110" height="70" as="geometry"/></mxCell><mxCell id="32" value="" style="endArrow=classic;html=1;rounded=0;sketch=1;hachureGap=4;jiggle=2;fontFamily=Architects Daughter;fontSource=https%3A%2F%2Ffonts.googleapis.com%2Fcss%3Ffamily%3DArchitects%2BDaughter;fontSize=11;entryX=0;entryY=0.5;entryDx=0;entryDy=0;" edge="1" parent="1" target="31"><mxGeometry width="50" height="50" relative="1" as="geometry"><mxPoint x="66.63999999999989" y="169.99999999999977" as="sourcePoint"/><mxPoint x="225" y="192.01" as="targetPoint"/></mxGeometry></mxCell><mxCell id="33" value="&lt;font style=&quot;font-size: 11px;&quot;&gt;Carte bancaire&lt;br&gt;&lt;/font&gt;" style="ellipse;whiteSpace=wrap;html=1;sketch=1;hachureGap=4;jiggle=2;fontFamily=Architects Daughter;fontSource=https%3A%2F%2Ffonts.googleapis.com%2Fcss%3Ffamily%3DArchitects%2BDaughter;fontSize=20;" vertex="1" parent="1"><mxGeometry x="280" y="295" width="90" height="50" as="geometry"/></mxCell><mxCell id="34" value="&lt;font style=&quot;font-size: 11px;&quot;&gt;Virement&lt;br&gt;&lt;/font&gt;" style="ellipse;whiteSpace=wrap;html=1;sketch=1;hachureGap=4;jiggle=2;fontFamily=Architects Daughter;fontSource=https%3A%2F%2Ffonts.googleapis.com%2Fcss%3Ffamily%3DArchitects%2BDaughter;fontSize=20;" vertex="1" parent="1"><mxGeometry x="180" y="300" width="90" height="40" as="geometry"/></mxCell><mxCell id="36" value="" style="endArrow=classic;html=1;rounded=0;" edge="1" parent="1"><mxGeometry width="50" height="50" relative="1" as="geometry"><mxPoint x="240" y="300" as="sourcePoint"/><mxPoint x="260" y="280" as="targetPoint"/></mxGeometry></mxCell><mxCell id="37" value="" style="endArrow=classic;html=1;rounded=0;" edge="1" parent="1" source="33"><mxGeometry width="50" height="50" relative="1" as="geometry"><mxPoint x="279.9999999999999" y="294.9999999999998" as="sourcePoint"/><mxPoint x="299.9999999999999" y="274.9999999999998" as="targetPoint"/></mxGeometry></mxCell></root></mxGraphModel></diagram></mxfile>